# xmcd CD database file
#
# Track frame offsets:
#	150
#	12579
#	31437
#	47525
#	66193
#	87206
#	104441
#	125456
#	144335
#	159651
#
# Disc length: 2402 seconds
#
# Revision: 0
# Processed by: cddbd v1.5.2PL0 Copyright (c) Steve Scherf et al.
# Submitted via: CDex 1.70beta1
#
DISCID=8209600a
DTITLE=Various Artist - Cuban Greats [CD3)
DYEAR=2006
DGENRE=Salsa
TTITLE0=Climax - Ruben Gonzales
TTITLE1=Eso no (bossa Mix) - Miguel Torres
TTITLE2=Deeper feeling (Carnaval Mix) - Talli Hoi
TTITLE3=Cuba libre - Lacho
TTITLE4=Setting sun - El Parado
TTITLE5=Late night party (Rising Star Mix) - Oscar Ahora
TTITLE6=Inmensa (Chilled Dub Mix) - The Cuban horus
TTITLE7=Oigame compay - Manuel valdes
TTITLE8=Forever love - Hispana El hambre
TTITLE9=Cuando no estas aqui - A Dos Velas
EXTD=YEAR: 2006
EXTT0=
EXTT1=
EXTT2=
EXTT3=
EXTT4=
EXTT5=
EXTT6=
EXTT7=
EXTT8=
EXTT9=
PLAYORDER=
